<svg width="21" height="16" viewBox="0 0 21 16" fill="none" xmlns="http://www.w3.org/2000/svg">
<path d="M15.8551 15.12C16.6871 15.12 17.4391 14.976 18.1111 14.688C18.7511 14.368 19.2631 13.92 19.6471 13.344C19.9671 12.896 20.2551 12.272 20.5111 11.472C20.7351 10.672 20.8471 9.776 20.8471 8.784C20.8471 7.184 20.4311 5.68 19.5991 4.272C18.7671 2.832 17.4871 1.712 15.7591 0.912L15.3271 1.776C16.1591 2.16 16.9111 2.72 17.5831 3.456C18.2231 4.16 18.6711 4.912 18.9271 5.712C19.2151 6.608 19.2631 7.488 19.0711 8.352C18.2391 7.36 17.0711 6.864 15.5671 6.864C14.2871 6.864 13.2631 7.232 12.4951 7.968C11.7271 8.672 11.3431 9.68 11.3431 10.992C11.3431 12.24 11.7591 13.248 12.5911 14.016C13.4231 14.752 14.5111 15.12 15.8551 15.12ZM5.312 15.12C6.144 15.12 6.896 14.976 7.568 14.688C8.208 14.368 8.72 13.92 9.104 13.344C9.424 12.896 9.712 12.272 9.968 11.472C10.192 10.672 10.304 9.776 10.304 8.784C10.304 7.184 9.888 5.68 9.056 4.272C8.224 2.832 6.944 1.712 5.216 0.912L4.784 1.776C5.616 2.16 6.368 2.72 7.04 3.456C7.68 4.16 8.128 4.912 8.384 5.712C8.672 6.608 8.72 7.488 8.528 8.352C7.696 7.36 6.528 6.864 5.024 6.864C3.744 6.864 2.72 7.232 1.952 7.968C1.184 8.672 0.799999 9.68 0.799999 10.992C0.799999 12.24 1.216 13.248 2.048 14.016C2.88 14.752 3.968 15.12 5.312 15.12Z" fill="#7AA77C"/>
</svg>
