<svg width="21" height="16" viewBox="0 0 21 16" fill="none" xmlns="http://www.w3.org/2000/svg">
<path d="M5.14488 15.12C4.31288 15.12 3.56088 14.976 2.88888 14.688C2.24888 14.368 1.73687 13.92 1.35288 13.344C1.03288 12.896 0.744875 12.272 0.488875 11.472C0.264875 10.672 0.152875 9.776 0.152875 8.784C0.152875 7.184 0.568875 5.68 1.40087 4.272C2.23287 2.832 3.51288 1.712 5.24088 0.912L5.67288 1.776C4.84088 2.16 4.08888 2.72 3.41688 3.456C2.77688 4.16 2.32888 4.912 2.07288 5.712C1.78488 6.608 1.73688 7.488 1.92887 8.352C2.76087 7.36 3.92887 6.864 5.43287 6.864C6.71288 6.864 7.73688 7.232 8.50488 7.968C9.27288 8.672 9.65688 9.68 9.65688 10.992C9.65688 12.24 9.24088 13.248 8.40888 14.016C7.57688 14.752 6.48888 15.12 5.14488 15.12ZM15.688 15.12C14.856 15.12 14.104 14.976 13.432 14.688C12.792 14.368 12.28 13.92 11.896 13.344C11.576 12.896 11.288 12.272 11.032 11.472C10.808 10.672 10.696 9.776 10.696 8.784C10.696 7.184 11.112 5.68 11.944 4.272C12.776 2.832 14.056 1.712 15.784 0.912L16.216 1.776C15.384 2.16 14.632 2.72 13.96 3.456C13.32 4.16 12.872 4.912 12.616 5.712C12.328 6.608 12.28 7.488 12.472 8.352C13.304 7.36 14.472 6.864 15.976 6.864C17.256 6.864 18.28 7.232 19.048 7.968C19.816 8.672 20.2 9.68 20.2 10.992C20.2 12.24 19.784 13.248 18.952 14.016C18.12 14.752 17.032 15.12 15.688 15.12Z" fill="#7AA77C"/>
</svg>
