<svg xmlns="http://www.w3.org/2000/svg" xmlns:xlink="http://www.w3.org/1999/xlink" width="500" zoomAndPan="magnify" viewBox="0 0 375 374.999991" height="500" preserveAspectRatio="xMidYMid meet" version="1.0"><defs><g/><clipPath id="id1"><path d="M 109 160 L 145 160 L 145 215 L 109 215 Z M 109 160 " clip-rule="nonzero"/></clipPath><clipPath id="id2"><path d="M 144.421875 160.699219 L 144.339844 214.496094 L 109.164062 214.441406 L 109.246094 160.644531 Z M 144.421875 160.699219 " clip-rule="nonzero"/></clipPath><clipPath id="id3"><path d="M 144.421875 160.699219 L 144.339844 214.496094 L 109.164062 214.441406 L 109.246094 160.644531 Z M 144.421875 160.699219 " clip-rule="nonzero"/></clipPath></defs><g clip-path="url(#id1)"><g clip-path="url(#id2)"><g clip-path="url(#id3)"><path fill="#fefee3" d="M 117.820312 209 C 112.058594 205.96875 113.203125 195.648438 120.632812 195.625 L 120.65625 179.25 C 118.964844 178.304688 117.421875 178.234375 116.238281 177.167969 C 109.304688 170.894531 120.40625 160.472656 126.261719 168.1875 C 128.042969 167.296875 128.429688 166.003906 129.988281 165.65625 C 139.492188 163.53125 141.867188 177.8125 132.761719 178.574219 L 132.734375 195.183594 C 134.128906 196.261719 135.21875 195.828125 136.457031 196.574219 C 141.195312 199.429688 140.3125 207.648438 135.039062 209.257812 C 132.15625 210.140625 128.816406 208.710938 127.132812 206.710938 C 124.996094 209.117188 121.015625 210.679688 117.820312 209 Z M 124.222656 213.957031 C 125.238281 213.664062 126.222656 213.246094 127.152344 212.726562 C 129.785156 214.152344 133.105469 214.828125 136.453125 213.808594 C 141.171875 212.367188 144.347656 207.828125 144.355469 202.503906 C 144.363281 198.289062 142.339844 194.550781 138.953125 192.507812 C 138.460938 192.210938 137.984375 191.992188 137.542969 191.832031 L 137.558594 182.09375 C 141.066406 180.296875 143.28125 176.753906 143.289062 172.449219 C 143.292969 168.78125 141.640625 165.273438 138.871094 163.074219 C 136.152344 160.917969 132.625 160.183594 128.929688 161.011719 C 127.902344 161.242188 127.070312 161.636719 126.40625 162.066406 C 123.785156 160.597656 120.710938 160.273438 117.703125 161.265625 C 112.800781 162.886719 109.238281 167.628906 109.230469 172.542969 C 109.226562 175.589844 110.566406 178.480469 113.003906 180.683594 C 113.957031 181.546875 114.960938 182.070312 115.847656 182.4375 L 115.835938 191.90625 C 111.953125 193.707031 109.375 197.679688 109.367188 202.511719 C 109.359375 207.089844 111.734375 211.1875 115.566406 213.207031 C 118.144531 214.5625 121.21875 214.828125 124.222656 213.957031 " fill-opacity="1" fill-rule="evenodd"/></g></g></g><g fill="#fefee3" fill-opacity="1"><g transform="translate(156.621424, 180.308059)"><g><path d="M 6.96875 0.234375 C 6.101562 0.234375 5.207031 0.144531 4.28125 -0.03125 C 3.363281 -0.207031 2.578125 -0.460938 1.921875 -0.796875 C 1.535156 -0.972656 1.265625 -1.21875 1.109375 -1.53125 C 0.953125 -1.851562 0.894531 -2.179688 0.9375 -2.515625 C 0.976562 -2.847656 1.097656 -3.144531 1.296875 -3.40625 C 1.503906 -3.675781 1.769531 -3.851562 2.09375 -3.9375 C 2.425781 -4.03125 2.796875 -3.988281 3.203125 -3.8125 C 3.742188 -3.539062 4.359375 -3.335938 5.046875 -3.203125 C 5.734375 -3.066406 6.375 -3 6.96875 -3 C 7.90625 -3 8.5625 -3.117188 8.9375 -3.359375 C 9.320312 -3.609375 9.515625 -3.921875 9.515625 -4.296875 C 9.515625 -4.617188 9.378906 -4.878906 9.109375 -5.078125 C 8.847656 -5.285156 8.382812 -5.457031 7.71875 -5.59375 L 5.21875 -6.140625 C 2.507812 -6.722656 1.15625 -8.140625 1.15625 -10.390625 C 1.15625 -11.367188 1.421875 -12.226562 1.953125 -12.96875 C 2.484375 -13.71875 3.226562 -14.289062 4.1875 -14.6875 C 5.144531 -15.09375 6.257812 -15.296875 7.53125 -15.296875 C 8.269531 -15.296875 9.019531 -15.210938 9.78125 -15.046875 C 10.539062 -14.890625 11.195312 -14.648438 11.75 -14.328125 C 12.175781 -14.097656 12.445312 -13.785156 12.5625 -13.390625 C 12.675781 -12.992188 12.660156 -12.609375 12.515625 -12.234375 C 12.378906 -11.867188 12.128906 -11.597656 11.765625 -11.421875 C 11.398438 -11.253906 10.941406 -11.285156 10.390625 -11.515625 C 9.960938 -11.703125 9.488281 -11.84375 8.96875 -11.9375 C 8.457031 -12.03125 7.960938 -12.078125 7.484375 -12.078125 C 6.679688 -12.078125 6.066406 -11.9375 5.640625 -11.65625 C 5.210938 -11.382812 5 -11.023438 5 -10.578125 C 5 -10.265625 5.125 -10.007812 5.375 -9.8125 C 5.632812 -9.613281 6.09375 -9.441406 6.75 -9.296875 L 9.234375 -8.765625 C 11.984375 -8.179688 13.359375 -6.796875 13.359375 -4.609375 C 13.359375 -3.628906 13.09375 -2.773438 12.5625 -2.046875 C 12.039062 -1.328125 11.300781 -0.765625 10.34375 -0.359375 C 9.382812 0.0351562 8.257812 0.234375 6.96875 0.234375 Z M 6.96875 0.234375 "/></g></g></g><g fill="#fefee3" fill-opacity="1"><g transform="translate(177.186944, 180.308059)"><g><path d="M 8.03125 0.234375 C 5.84375 0.234375 4.164062 -0.316406 3 -1.421875 C 1.84375 -2.535156 1.265625 -4.195312 1.265625 -6.40625 L 1.265625 -13.28125 C 1.265625 -13.914062 1.429688 -14.40625 1.765625 -14.75 C 2.109375 -15.09375 2.597656 -15.265625 3.234375 -15.265625 C 3.859375 -15.265625 4.335938 -15.09375 4.671875 -14.75 C 5.015625 -14.40625 5.1875 -13.914062 5.1875 -13.28125 L 5.1875 -6.375 C 5.1875 -5.269531 5.425781 -4.441406 5.90625 -3.890625 C 6.394531 -3.335938 7.101562 -3.0625 8.03125 -3.0625 C 8.945312 -3.0625 9.644531 -3.335938 10.125 -3.890625 C 10.613281 -4.441406 10.859375 -5.269531 10.859375 -6.375 L 10.859375 -13.28125 C 10.859375 -13.914062 11.023438 -14.40625 11.359375 -14.75 C 11.691406 -15.09375 12.171875 -15.265625 12.796875 -15.265625 C 13.429688 -15.265625 13.910156 -15.09375 14.234375 -14.75 C 14.566406 -14.40625 14.734375 -13.914062 14.734375 -13.28125 L 14.734375 -6.40625 C 14.734375 -4.195312 14.164062 -2.535156 13.03125 -1.421875 C 11.894531 -0.316406 10.226562 0.234375 8.03125 0.234375 Z M 8.03125 0.234375 "/></g></g></g><g fill="#fefee3" fill-opacity="1"><g transform="translate(199.825837, 180.308059)"><g><path d="M 3.328125 0.1875 C 2.703125 0.1875 2.21875 0.0195312 1.875 -0.3125 C 1.539062 -0.65625 1.375 -1.148438 1.375 -1.796875 L 1.375 -13.28125 C 1.375 -13.914062 1.539062 -14.40625 1.875 -14.75 C 2.21875 -15.09375 2.703125 -15.265625 3.328125 -15.265625 C 3.960938 -15.265625 4.445312 -15.09375 4.78125 -14.75 C 5.125 -14.40625 5.296875 -13.914062 5.296875 -13.28125 L 5.296875 -8.609375 L 5.34375 -8.609375 L 10.53125 -14.34375 C 10.800781 -14.625 11.085938 -14.847656 11.390625 -15.015625 C 11.703125 -15.179688 12.050781 -15.265625 12.4375 -15.265625 C 13.019531 -15.265625 13.445312 -15.109375 13.71875 -14.796875 C 13.988281 -14.492188 14.109375 -14.132812 14.078125 -13.71875 C 14.054688 -13.3125 13.894531 -12.941406 13.59375 -12.609375 L 9.15625 -7.90625 L 13.84375 -2.59375 C 14.21875 -2.175781 14.40625 -1.753906 14.40625 -1.328125 C 14.40625 -0.898438 14.253906 -0.539062 13.953125 -0.25 C 13.660156 0.0390625 13.234375 0.1875 12.671875 0.1875 C 12.191406 0.1875 11.800781 0.09375 11.5 -0.09375 C 11.195312 -0.289062 10.882812 -0.582031 10.5625 -0.96875 L 5.34375 -6.796875 L 5.296875 -6.796875 L 5.296875 -1.796875 C 5.296875 -1.148438 5.128906 -0.65625 4.796875 -0.3125 C 4.460938 0.0195312 3.972656 0.1875 3.328125 0.1875 Z M 3.328125 0.1875 "/></g></g></g><g fill="#fefee3" fill-opacity="1"><g transform="translate(221.695226, 180.308059)"><g><path d="M 3.328125 0.1875 C 2.703125 0.1875 2.21875 0.0195312 1.875 -0.3125 C 1.539062 -0.65625 1.375 -1.15625 1.375 -1.8125 L 1.375 -13.25 C 1.375 -13.90625 1.539062 -14.40625 1.875 -14.75 C 2.21875 -15.09375 2.703125 -15.265625 3.328125 -15.265625 C 3.960938 -15.265625 4.445312 -15.09375 4.78125 -14.75 C 5.125 -14.40625 5.296875 -13.90625 5.296875 -13.25 L 5.296875 -1.8125 C 5.296875 -1.15625 5.128906 -0.65625 4.796875 -0.3125 C 4.460938 0.0195312 3.972656 0.1875 3.328125 0.1875 Z M 3.328125 0.1875 "/></g></g></g><g fill="#fefee3" fill-opacity="1"><g transform="translate(235.014603, 180.308059)"><g><path d="M 6.78125 0.234375 C 5.625 0.234375 4.617188 0.0507812 3.765625 -0.3125 C 2.910156 -0.675781 2.25 -1.179688 1.78125 -1.828125 C 1.320312 -2.472656 1.09375 -3.234375 1.09375 -4.109375 C 1.09375 -5.078125 1.359375 -5.898438 1.890625 -6.578125 C 2.421875 -7.265625 3.101562 -7.828125 3.9375 -8.265625 C 3.476562 -8.722656 3.132812 -9.21875 2.90625 -9.75 C 2.675781 -10.289062 2.5625 -10.835938 2.5625 -11.390625 C 2.5625 -12.160156 2.753906 -12.84375 3.140625 -13.4375 C 3.535156 -14.03125 4.085938 -14.488281 4.796875 -14.8125 C 5.503906 -15.132812 6.332031 -15.296875 7.28125 -15.296875 C 8.550781 -15.296875 9.5625 -14.972656 10.3125 -14.328125 C 11.0625 -13.679688 11.4375 -12.8125 11.4375 -11.71875 C 11.4375 -10.101562 10.59375 -8.816406 8.90625 -7.859375 L 11.09375 -5.75 C 11.257812 -6.09375 11.398438 -6.457031 11.515625 -6.84375 C 11.628906 -7.226562 11.734375 -7.625 11.828125 -8.03125 C 11.921875 -8.519531 12.097656 -8.882812 12.359375 -9.125 C 12.628906 -9.363281 13.003906 -9.484375 13.484375 -9.484375 C 13.992188 -9.484375 14.378906 -9.34375 14.640625 -9.0625 C 14.910156 -8.78125 15.003906 -8.375 14.921875 -7.84375 C 14.796875 -7.03125 14.597656 -6.269531 14.328125 -5.5625 C 14.066406 -4.863281 13.738281 -4.222656 13.34375 -3.640625 L 14.796875 -2.265625 C 15.191406 -1.890625 15.390625 -1.515625 15.390625 -1.140625 C 15.398438 -0.765625 15.253906 -0.445312 14.953125 -0.1875 C 14.660156 0.0625 14.265625 0.1875 13.765625 0.1875 C 13.304688 0.1875 12.9375 0.0976562 12.65625 -0.078125 C 12.382812 -0.253906 12.078125 -0.5 11.734375 -0.8125 L 11.25 -1.296875 C 10.601562 -0.816406 9.898438 -0.441406 9.140625 -0.171875 C 8.378906 0.0976562 7.59375 0.234375 6.78125 0.234375 Z M 7.28125 -12.828125 C 6.882812 -12.828125 6.570312 -12.703125 6.34375 -12.453125 C 6.113281 -12.210938 6 -11.894531 6 -11.5 C 6 -11.195312 6.070312 -10.910156 6.21875 -10.640625 C 6.375 -10.367188 6.625 -10.054688 6.96875 -9.703125 C 7.519531 -9.984375 7.910156 -10.269531 8.140625 -10.5625 C 8.378906 -10.863281 8.5 -11.210938 8.5 -11.609375 C 8.5 -12.015625 8.390625 -12.316406 8.171875 -12.515625 C 7.953125 -12.722656 7.65625 -12.828125 7.28125 -12.828125 Z M 7.03125 -2.625 C 7.425781 -2.625 7.789062 -2.679688 8.125 -2.796875 C 8.46875 -2.910156 8.796875 -3.082031 9.109375 -3.3125 L 5.921875 -6.375 C 5.210938 -5.875 4.859375 -5.207031 4.859375 -4.375 C 4.859375 -3.832031 5.046875 -3.40625 5.421875 -3.09375 C 5.804688 -2.78125 6.34375 -2.625 7.03125 -2.625 Z M 7.03125 -2.625 "/></g></g></g><g fill="#fefee3" fill-opacity="1"><g transform="translate(156.621424, 209.558057)"><g><path d="M 3.328125 0.1875 C 2.703125 0.1875 2.21875 0.0195312 1.875 -0.3125 C 1.539062 -0.65625 1.375 -1.148438 1.375 -1.796875 L 1.375 -13.28125 C 1.375 -13.914062 1.539062 -14.40625 1.875 -14.75 C 2.21875 -15.09375 2.703125 -15.265625 3.328125 -15.265625 C 3.960938 -15.265625 4.445312 -15.09375 4.78125 -14.75 C 5.125 -14.40625 5.296875 -13.914062 5.296875 -13.28125 L 5.296875 -8.609375 L 5.34375 -8.609375 L 10.53125 -14.34375 C 10.800781 -14.625 11.085938 -14.847656 11.390625 -15.015625 C 11.703125 -15.179688 12.050781 -15.265625 12.4375 -15.265625 C 13.019531 -15.265625 13.445312 -15.109375 13.71875 -14.796875 C 13.988281 -14.492188 14.109375 -14.132812 14.078125 -13.71875 C 14.054688 -13.3125 13.894531 -12.941406 13.59375 -12.609375 L 9.15625 -7.90625 L 13.84375 -2.59375 C 14.21875 -2.175781 14.40625 -1.753906 14.40625 -1.328125 C 14.40625 -0.898438 14.253906 -0.539062 13.953125 -0.25 C 13.660156 0.0390625 13.234375 0.1875 12.671875 0.1875 C 12.191406 0.1875 11.800781 0.09375 11.5 -0.09375 C 11.195312 -0.289062 10.882812 -0.582031 10.5625 -0.96875 L 5.34375 -6.796875 L 5.296875 -6.796875 L 5.296875 -1.796875 C 5.296875 -1.148438 5.128906 -0.65625 4.796875 -0.3125 C 4.460938 0.0195312 3.972656 0.1875 3.328125 0.1875 Z M 3.328125 0.1875 "/></g></g></g><g fill="#fefee3" fill-opacity="1"><g transform="translate(178.490816, 209.558057)"><g><path d="M 3.328125 0.1875 C 2.703125 0.1875 2.21875 0.0195312 1.875 -0.3125 C 1.539062 -0.65625 1.375 -1.148438 1.375 -1.796875 L 1.375 -13.078125 C 1.375 -13.722656 1.539062 -14.210938 1.875 -14.546875 C 2.21875 -14.890625 2.710938 -15.0625 3.359375 -15.0625 L 8.609375 -15.0625 C 10.316406 -15.0625 11.640625 -14.644531 12.578125 -13.8125 C 13.515625 -12.976562 13.984375 -11.820312 13.984375 -10.34375 C 13.984375 -9.21875 13.703125 -8.273438 13.140625 -7.515625 C 12.578125 -6.753906 11.757812 -6.222656 10.6875 -5.921875 C 11.488281 -5.703125 12.128906 -5.15625 12.609375 -4.28125 L 13.6875 -2.34375 C 13.90625 -1.914062 14.003906 -1.507812 13.984375 -1.125 C 13.960938 -0.75 13.8125 -0.4375 13.53125 -0.1875 C 13.25 0.0625 12.828125 0.1875 12.265625 0.1875 C 11.710938 0.1875 11.257812 0.078125 10.90625 -0.140625 C 10.5625 -0.359375 10.253906 -0.71875 9.984375 -1.21875 L 8.03125 -4.78125 C 7.863281 -5.101562 7.644531 -5.320312 7.375 -5.4375 C 7.113281 -5.5625 6.816406 -5.625 6.484375 -5.625 L 5.296875 -5.625 L 5.296875 -1.796875 C 5.296875 -1.148438 5.128906 -0.65625 4.796875 -0.3125 C 4.460938 0.0195312 3.972656 0.1875 3.328125 0.1875 Z M 5.296875 -8.40625 L 7.90625 -8.40625 C 9.457031 -8.40625 10.234375 -9.015625 10.234375 -10.234375 C 10.234375 -11.453125 9.457031 -12.0625 7.90625 -12.0625 L 5.296875 -12.0625 Z M 5.296875 -8.40625 "/></g></g></g><g fill="#fefee3" fill-opacity="1"><g transform="translate(200.231965, 209.558057)"><g><path d="M 3.328125 0.1875 C 2.703125 0.1875 2.21875 0.0195312 1.875 -0.3125 C 1.539062 -0.65625 1.375 -1.15625 1.375 -1.8125 L 1.375 -13.25 C 1.375 -13.90625 1.539062 -14.40625 1.875 -14.75 C 2.21875 -15.09375 2.703125 -15.265625 3.328125 -15.265625 C 3.960938 -15.265625 4.445312 -15.09375 4.78125 -14.75 C 5.125 -14.40625 5.296875 -13.90625 5.296875 -13.25 L 5.296875 -1.8125 C 5.296875 -1.15625 5.128906 -0.65625 4.796875 -0.3125 C 4.460938 0.0195312 3.972656 0.1875 3.328125 0.1875 Z M 3.328125 0.1875 "/></g></g></g><g fill="#fefee3" fill-opacity="1"><g transform="translate(213.551336, 209.558057)"><g><path d="M 6.96875 0.234375 C 6.101562 0.234375 5.207031 0.144531 4.28125 -0.03125 C 3.363281 -0.207031 2.578125 -0.460938 1.921875 -0.796875 C 1.535156 -0.972656 1.265625 -1.21875 1.109375 -1.53125 C 0.953125 -1.851562 0.894531 -2.179688 0.9375 -2.515625 C 0.976562 -2.847656 1.097656 -3.144531 1.296875 -3.40625 C 1.503906 -3.675781 1.769531 -3.851562 2.09375 -3.9375 C 2.425781 -4.03125 2.796875 -3.988281 3.203125 -3.8125 C 3.742188 -3.539062 4.359375 -3.335938 5.046875 -3.203125 C 5.734375 -3.066406 6.375 -3 6.96875 -3 C 7.90625 -3 8.5625 -3.117188 8.9375 -3.359375 C 9.320312 -3.609375 9.515625 -3.921875 9.515625 -4.296875 C 9.515625 -4.617188 9.378906 -4.878906 9.109375 -5.078125 C 8.847656 -5.285156 8.382812 -5.457031 7.71875 -5.59375 L 5.21875 -6.140625 C 2.507812 -6.722656 1.15625 -8.140625 1.15625 -10.390625 C 1.15625 -11.367188 1.421875 -12.226562 1.953125 -12.96875 C 2.484375 -13.71875 3.226562 -14.289062 4.1875 -14.6875 C 5.144531 -15.09375 6.257812 -15.296875 7.53125 -15.296875 C 8.269531 -15.296875 9.019531 -15.210938 9.78125 -15.046875 C 10.539062 -14.890625 11.195312 -14.648438 11.75 -14.328125 C 12.175781 -14.097656 12.445312 -13.785156 12.5625 -13.390625 C 12.675781 -12.992188 12.660156 -12.609375 12.515625 -12.234375 C 12.378906 -11.867188 12.128906 -11.597656 11.765625 -11.421875 C 11.398438 -11.253906 10.941406 -11.285156 10.390625 -11.515625 C 9.960938 -11.703125 9.488281 -11.84375 8.96875 -11.9375 C 8.457031 -12.03125 7.960938 -12.078125 7.484375 -12.078125 C 6.679688 -12.078125 6.066406 -11.9375 5.640625 -11.65625 C 5.210938 -11.382812 5 -11.023438 5 -10.578125 C 5 -10.265625 5.125 -10.007812 5.375 -9.8125 C 5.632812 -9.613281 6.09375 -9.441406 6.75 -9.296875 L 9.234375 -8.765625 C 11.984375 -8.179688 13.359375 -6.796875 13.359375 -4.609375 C 13.359375 -3.628906 13.09375 -2.773438 12.5625 -2.046875 C 12.039062 -1.328125 11.300781 -0.765625 10.34375 -0.359375 C 9.382812 0.0351562 8.257812 0.234375 6.96875 0.234375 Z M 6.96875 0.234375 "/></g></g></g><g fill="#fefee3" fill-opacity="1"><g transform="translate(234.11686, 209.558057)"><g><path d="M 6.96875 0.234375 C 6.101562 0.234375 5.207031 0.144531 4.28125 -0.03125 C 3.363281 -0.207031 2.578125 -0.460938 1.921875 -0.796875 C 1.535156 -0.972656 1.265625 -1.21875 1.109375 -1.53125 C 0.953125 -1.851562 0.894531 -2.179688 0.9375 -2.515625 C 0.976562 -2.847656 1.097656 -3.144531 1.296875 -3.40625 C 1.503906 -3.675781 1.769531 -3.851562 2.09375 -3.9375 C 2.425781 -4.03125 2.796875 -3.988281 3.203125 -3.8125 C 3.742188 -3.539062 4.359375 -3.335938 5.046875 -3.203125 C 5.734375 -3.066406 6.375 -3 6.96875 -3 C 7.90625 -3 8.5625 -3.117188 8.9375 -3.359375 C 9.320312 -3.609375 9.515625 -3.921875 9.515625 -4.296875 C 9.515625 -4.617188 9.378906 -4.878906 9.109375 -5.078125 C 8.847656 -5.285156 8.382812 -5.457031 7.71875 -5.59375 L 5.21875 -6.140625 C 2.507812 -6.722656 1.15625 -8.140625 1.15625 -10.390625 C 1.15625 -11.367188 1.421875 -12.226562 1.953125 -12.96875 C 2.484375 -13.71875 3.226562 -14.289062 4.1875 -14.6875 C 5.144531 -15.09375 6.257812 -15.296875 7.53125 -15.296875 C 8.269531 -15.296875 9.019531 -15.210938 9.78125 -15.046875 C 10.539062 -14.890625 11.195312 -14.648438 11.75 -14.328125 C 12.175781 -14.097656 12.445312 -13.785156 12.5625 -13.390625 C 12.675781 -12.992188 12.660156 -12.609375 12.515625 -12.234375 C 12.378906 -11.867188 12.128906 -11.597656 11.765625 -11.421875 C 11.398438 -11.253906 10.941406 -11.285156 10.390625 -11.515625 C 9.960938 -11.703125 9.488281 -11.84375 8.96875 -11.9375 C 8.457031 -12.03125 7.960938 -12.078125 7.484375 -12.078125 C 6.679688 -12.078125 6.066406 -11.9375 5.640625 -11.65625 C 5.210938 -11.382812 5 -11.023438 5 -10.578125 C 5 -10.265625 5.125 -10.007812 5.375 -9.8125 C 5.632812 -9.613281 6.09375 -9.441406 6.75 -9.296875 L 9.234375 -8.765625 C 11.984375 -8.179688 13.359375 -6.796875 13.359375 -4.609375 C 13.359375 -3.628906 13.09375 -2.773438 12.5625 -2.046875 C 12.039062 -1.328125 11.300781 -0.765625 10.34375 -0.359375 C 9.382812 0.0351562 8.257812 0.234375 6.96875 0.234375 Z M 6.96875 0.234375 "/></g></g></g></svg>